<svg width="60" height="60" viewBox="0 0 60 60" fill="none" xmlns="http://www.w3.org/2000/svg">
<path d="M7.49995 9.37518V1.87501C7.49995 0.838518 8.33848 0 9.37522 0C10.4115 0 11.25 0.838518 11.25 1.87501V9.37518C11.25 10.4114 10.4115 11.2499 9.37522 11.2499C8.33848 11.2501 7.49995 10.4114 7.49995 9.37518ZM39.3754 11.2501C40.4114 11.2501 41.2504 10.4116 41.2504 9.37531V1.87501C41.2504 0.838518 40.4114 0 39.3754 0C38.3389 0 37.4998 0.838518 37.4998 1.87501V9.37518C37.4998 10.4114 38.3389 11.2501 39.3754 11.2501ZM60 44.9995C60 53.2841 53.2839 60 45 60C36.7166 60 30.0001 53.2841 30.0001 44.9995C30.0001 36.7162 36.7165 29.9999 45 29.9999C53.2839 29.9999 60 36.7161 60 44.9995ZM56.2505 44.9995C56.2505 38.7968 51.204 33.7497 45.0001 33.7497C38.7967 33.7497 33.7502 38.7967 33.7502 44.9995C33.7502 51.2035 38.7967 56.2499 45.0001 56.2499C51.204 56.2499 56.2505 51.2035 56.2505 44.9995ZM15.0002 22.5H7.49995V29.9999H15.0002V22.5ZM7.49995 41.25H15.0002V33.7497H7.49995V41.25ZM18.7499 29.9999H26.2503V22.5H18.7499V29.9999ZM18.7499 41.25H26.2503V33.7497H18.7499V41.25ZM3.75016 44.6267V18.7499H45.0001V26.25H48.7503V11.6238C48.7503 9.34587 46.9335 7.49992 44.689 7.49992H43.1251V9.37531C43.1251 11.4405 41.4438 13.1252 39.3755 13.1252C37.3066 13.1252 35.6255 11.4405 35.6255 9.37531V7.49992H13.1249V9.37531C13.1249 11.4405 11.444 13.1252 9.37534 13.1252C7.30618 13.1252 5.62518 11.4405 5.62518 9.37531V7.49992H4.06314C1.81851 7.49992 0 9.34587 0 11.6238V44.6268C0 46.8972 1.81851 48.7503 4.06314 48.7503H26.2503V44.9997H4.06314C3.89323 44.9995 3.75016 44.8241 3.75016 44.6267ZM37.4998 29.9999V22.5H30.0002V29.9999H37.4998ZM50.6251 44.9995H45V39.3744C45 38.3385 44.1614 37.5 43.1249 37.5C42.0884 37.5 41.2504 38.3385 41.2504 39.3744V46.8752C41.2504 47.9112 42.0884 48.7502 43.1249 48.7502H50.6251C51.6616 48.7502 52.5002 47.9112 52.5002 46.8752C52.5002 45.8387 51.6616 44.9995 50.6251 44.9995Z" fill="#3399F6"/>
</svg>
