<svg width="17" height="18" viewBox="0 0 17 18" fill="none" xmlns="http://www.w3.org/2000/svg">
<g clip-path="url(#clip0)">
<path d="M1.63166 6.28807C1.84671 6.44875 2.49495 6.92595 3.5764 7.71945C4.65788 8.51294 5.48637 9.12391 6.06191 9.55239C6.12514 9.59936 6.25948 9.70146 6.46499 9.85883C6.67053 10.0163 6.84132 10.1436 6.97722 10.2406C7.11322 10.3377 7.27763 10.4465 7.47061 10.567C7.66353 10.6874 7.84539 10.778 8.01614 10.8379C8.18693 10.8983 8.34503 10.9283 8.49046 10.9283H8.5H8.50957C8.65501 10.9283 8.81317 10.8983 8.98396 10.8379C9.15465 10.778 9.33667 10.6873 9.52942 10.567C9.72227 10.4464 9.88668 10.3376 10.0227 10.2406C10.1587 10.1436 10.3293 10.0163 10.5349 9.85883C10.7404 9.70132 10.8749 9.59936 10.9382 9.55239C11.5199 9.12391 13 8.0357 15.3778 6.28786C15.8395 5.94649 16.2252 5.53458 16.535 5.05241C16.8451 4.57045 17 4.06485 17 3.53589C17 3.09387 16.8497 2.71548 16.5493 2.40078C16.2489 2.08601 15.8931 1.92871 15.4821 1.92871H1.51779C1.03085 1.92871 0.656108 2.10279 0.393645 2.45095C0.131215 2.79918 0 3.23445 0 3.75673C0 4.1786 0.173979 4.63575 0.52177 5.12791C0.869528 5.62011 1.23961 6.00686 1.63166 6.28807Z" fill="#3399F6"/>
<path d="M16.0512 7.36262C13.977 8.84909 12.402 10.0043 11.327 10.8281C10.9666 11.1092 10.6741 11.3287 10.4495 11.4859C10.225 11.6433 9.92628 11.804 9.55307 11.968C9.17999 12.1322 8.8323 12.2141 8.5097 12.2141H8.50002H8.49049C8.16795 12.2141 7.82006 12.1322 7.44698 11.968C7.07391 11.804 6.77503 11.6433 6.55051 11.4859C6.32606 11.3287 6.03352 11.1092 5.67307 10.8281C4.81923 10.1652 3.24764 9.00987 0.958244 7.36262C0.597661 7.10832 0.278279 6.81684 0 6.48877V14.464C0 14.9062 0.14856 15.2844 0.445845 15.5991C0.743064 15.914 1.10046 16.0713 1.51789 16.0713H15.4822C15.8996 16.0713 16.2569 15.914 16.5542 15.5991C16.8515 15.2843 17 14.9063 17 14.464V6.48877C16.728 6.81005 16.4119 7.10153 16.0512 7.36262Z" fill="#3399F6"/>
</g>
<defs>
<clipPath id="clip0">
<rect width="17" height="18" fill="white"/>
</clipPath>
</defs>
</svg>
