<svg width="39" height="39" viewBox="0 0 39 39" fill="none" xmlns="http://www.w3.org/2000/svg">
<path d="M34.125 17.0625V12.1875H31.6875V17.0625H26.8125V19.5H31.6875V24.375H34.125V19.5H39V17.0625H34.125Z" fill="#3399F6"/>
<path d="M12.1875 17.0625V21.9375H19.0832C18.0765 24.7747 15.366 26.8125 12.1875 26.8125C8.15588 26.8125 4.875 23.5316 4.875 19.5C4.875 15.4684 8.15588 12.1875 12.1875 12.1875C13.9352 12.1875 15.6171 12.8139 16.9236 13.9523L20.1264 10.2765C17.9327 8.3655 15.1149 7.3125 12.1875 7.3125C5.46731 7.3125 0 12.7798 0 19.5C0 26.2202 5.46731 31.6875 12.1875 31.6875C18.9077 31.6875 24.375 26.2202 24.375 19.5V17.0625H12.1875Z" fill="#3399F6"/>
</svg>
