<svg width="52" height="55" viewBox="0 0 52 55" fill="none" xmlns="http://www.w3.org/2000/svg">
<path d="M7.35014 11.6895C7.94901 12.1464 8.80449 12.0314 9.26157 11.4329C13.284 6.16282 19.3848 3.14057 25.9999 3.14057C32.615 3.14057 38.7158 6.163 42.7383 11.4329C43.0067 11.7845 43.4126 11.9691 43.8234 11.9691C44.1117 11.9691 44.4028 11.878 44.6497 11.6895C45.2482 11.2325 45.363 10.3768 44.9063 9.7781C40.3634 3.82656 33.4723 0.413208 25.9999 0.413208C18.5275 0.413208 11.6365 3.82656 7.09371 9.7781C6.63681 10.3768 6.75163 11.2325 7.35014 11.6895Z" fill="#3399F6"/>
<path d="M40.4955 18.9637C40.4955 21.312 42.4062 23.2227 44.7545 23.2227C47.1028 23.2227 49.0135 21.312 49.0135 18.9637C49.0135 16.6154 47.1028 14.7047 44.7545 14.7047C42.4062 14.7047 40.4955 16.6152 40.4955 18.9637Z" fill="#3399F6"/>
<path d="M49.1132 24.636C49.1033 24.6327 48.0302 24.3034 48.0302 24.3034C47.6417 24.1847 47.2196 24.2578 46.8943 24.5013L44.7545 26.1035L42.6147 24.5013C42.2892 24.2576 41.8669 24.1846 41.4787 24.3034C41.4787 24.3034 40.4056 24.6327 40.3958 24.636C38.6692 25.2117 37.5092 26.8212 37.5092 28.6411V35.0798C37.5092 35.3282 37.5817 35.5712 37.7184 35.7786L39.8777 39.0647V47.6946C39.8777 48.3975 40.4474 48.9672 41.1503 48.9672H48.3588C49.0618 48.9672 49.6315 48.3975 49.6315 47.6946V39.0647L51.7908 35.7786C51.9273 35.571 52 35.328 52 35.0798V28.6411C52 26.8212 50.8398 25.2117 49.1132 24.636Z" fill="#3399F6"/>
<path d="M7.24538 23.2227C9.59367 23.2227 11.5044 21.312 11.5044 18.9637C11.5044 16.6154 9.59367 14.7047 7.24538 14.7047C4.89709 14.7047 2.98621 16.6152 2.98621 18.9637C2.98621 21.3122 4.89691 23.2227 7.24538 23.2227Z" fill="#3399F6"/>
<path d="M11.604 24.636C11.5942 24.6327 10.5211 24.3034 10.5211 24.3034C10.1323 24.1847 9.71062 24.2578 9.38512 24.5013L7.24533 26.1035L5.10554 24.5013C4.78022 24.2576 4.35777 24.1846 3.96958 24.3034C3.96958 24.3034 2.89649 24.6327 2.88665 24.636C1.16002 25.2117 0 26.8212 0 28.6411V35.0798C0 35.3282 0.0725353 35.5712 0.209222 35.7786L2.36852 39.0647V47.6946C2.36852 48.3975 2.93823 48.9672 3.64116 48.9672H10.8495C11.5524 48.9672 12.1221 48.3975 12.1221 47.6946V39.0647L14.2814 35.7786C14.4179 35.571 14.4907 35.328 14.4907 35.0798V28.6411C14.4907 26.8212 13.3305 25.2117 11.604 24.636Z" fill="#3399F6"/>
<path d="M31.4932 12.9613C31.4932 9.93227 29.0288 7.4679 25.9998 7.4679C22.9708 7.4679 20.5065 9.93227 20.5065 12.9613C20.5065 15.9904 22.9708 18.4546 25.9998 18.4546C29.0288 18.4546 31.4932 15.9904 31.4932 12.9613Z" fill="#3399F6"/>
<path d="M32.0336 21.1169L32.0245 21.114L30.4566 20.6329C30.2093 20.5569 29.945 20.6878 29.8561 20.9318L26.5592 29.9777C26.3689 30.4995 25.631 30.4995 25.4407 29.9777L22.1438 20.9318C22.072 20.7348 21.8861 20.6112 21.6867 20.6112C21.6395 20.6112 19.9772 21.1133 19.9772 21.1133C17.9743 21.7807 16.6362 23.6375 16.6362 25.737V35.3062C16.6362 35.4011 16.6641 35.4941 16.7162 35.5735L20.1564 40.8085V54.0544C20.1564 54.3234 20.3744 54.5413 20.6434 54.5413H31.3565C31.6255 54.5413 31.8435 54.3234 31.8435 54.0544V40.8085L35.2836 35.5735C35.3358 35.4941 35.3637 35.4011 35.3637 35.3062V25.7118C35.3635 23.6214 34.0201 21.7678 32.0336 21.1169Z" fill="#3399F6"/>
<path d="M27.2881 20.9264C27.1519 20.7781 26.9527 20.7034 26.7512 20.7034H25.2485C25.0471 20.7034 24.8479 20.7781 24.7116 20.9264C24.5008 21.1563 24.4701 21.4881 24.6198 21.7475L25.4229 22.9583L25.047 26.1304L25.7874 28.1002C25.8596 28.2983 26.1397 28.2983 26.2121 28.1002L26.9526 26.1304L26.5766 22.9583L27.3798 21.7475C27.5296 21.4881 27.4989 21.1563 27.2881 20.9264Z" fill="#3399F6"/>
</svg>
