<svg width="60" height="60" viewBox="0 0 60 60" fill="none" xmlns="http://www.w3.org/2000/svg">
<path d="M42.117 43.007C41.567 42.94 41.071 43.334 41.007 43.883C40.943 44.432 41.335 44.929 41.883 44.993C52.399 46.231 58 49.567 58 51.5C58 54.214 47.348 58 30 58C12.652 58 2 54.214 2 51.5C2 49.567 7.601 46.231 18.117 44.993C18.665 44.929 19.057 44.431 18.993 43.883C18.928 43.334 18.432 42.938 17.883 43.007C7.354 44.247 0 47.739 0 51.5C0 55.724 10.305 60 30 60C49.695 60 60 55.724 60 51.5C60 47.739 52.646 44.247 42.117 43.007Z" fill="#3399F6"/>
<path d="M29.823 54.757L45.164 32.6C50.918 24.929 50.086 12.32 43.383 5.618C39.761 1.995 34.945 0 29.823 0C24.701 0 19.885 1.995 16.263 5.617C9.56003 12.319 8.72803 24.928 14.459 32.569L29.823 54.757ZM30 12C33.86 12 37 15.141 37 19C37 22.859 33.86 26 30 26C26.14 26 23 22.859 23 19C23 15.141 26.14 12 30 12Z" fill="#3399F6"/>
</svg>
