<svg width="17" height="17" viewBox="0 0 17 17" fill="none" xmlns="http://www.w3.org/2000/svg">
<path d="M16.9919 13.4139C17.0279 13.6899 16.9438 13.9298 16.7399 14.1338L14.3464 16.5092C14.2384 16.6292 14.0974 16.7313 13.9235 16.8152C13.7495 16.8992 13.5786 16.9532 13.4107 16.9771C13.3987 16.9771 13.3626 16.9802 13.3026 16.9862C13.2427 16.9922 13.1647 16.9953 13.0687 16.9953C12.8407 16.9953 12.4717 16.9563 11.9618 16.8783C11.4519 16.8002 10.828 16.6082 10.0902 16.3024C9.35225 15.9964 8.51544 15.5374 7.57964 14.9256C6.64384 14.3138 5.64799 13.4739 4.59219 12.4061C3.75234 11.5782 3.05647 10.7864 2.50457 10.0305C1.95267 9.27465 1.50875 8.57578 1.17281 7.93389C0.836846 7.29201 0.584893 6.71012 0.416924 6.18821C0.248954 5.66631 0.134975 5.21639 0.0749862 4.83846C0.0149972 4.46053 -0.00899835 4.16358 0.00299945 3.94762C0.0149972 3.73166 0.0209961 3.61169 0.0209961 3.58769C0.0449917 3.41972 0.0989818 3.24875 0.182966 3.07478C0.266951 2.90082 0.368932 2.75984 0.48891 2.65186L2.88247 0.258301C3.05044 0.0903322 3.24241 0.00634766 3.45837 0.00634766C3.61434 0.00634766 3.75231 0.0513394 3.87229 0.141323C3.99227 0.231306 4.09425 0.342286 4.17823 0.474262L6.10388 4.12759C6.21186 4.31956 6.24185 4.52952 6.19386 4.75748C6.14587 4.98543 6.04389 5.1774 5.88792 5.33337L5.00608 6.21521C4.98209 6.2392 4.96109 6.2782 4.94309 6.33219C4.9251 6.38618 4.9161 6.43117 4.9161 6.46716C4.96409 6.71912 5.07207 7.00706 5.24004 7.331C5.38401 7.61895 5.60597 7.96989 5.90592 8.38381C6.20586 8.79774 6.63178 9.27462 7.18368 9.81452C7.72358 10.3665 8.2035 10.7953 8.62342 11.1013C9.04325 11.4072 9.39431 11.6322 9.67625 11.7762C9.9582 11.9202 10.1742 12.0071 10.3241 12.0371L10.549 12.0821C10.573 12.0821 10.6121 12.073 10.666 12.0551C10.72 12.0371 10.759 12.0161 10.783 11.9921L11.8088 10.9483C12.0249 10.7563 12.2767 10.6603 12.5647 10.6603C12.7687 10.6603 12.9306 10.6963 13.0506 10.7683H13.0685L16.5419 12.8199C16.7939 12.976 16.9439 13.1739 16.9919 13.4139Z" fill="#3399F6"/>
</svg>
