<svg width="27" height="26" viewBox="0 0 27 26" fill="none" xmlns="http://www.w3.org/2000/svg">
<path d="M21.3584 2.66432C19.4999 0.946247 16.9279 0 14.1162 0C9.82131 0 7.17974 1.69535 5.72006 3.11748C3.92111 4.87011 2.88953 7.19723 2.88953 9.50231C2.88953 12.3965 4.14665 14.6179 6.25188 15.4443C6.39321 15.5 6.53542 15.5281 6.67484 15.5281C7.11896 15.5281 7.47086 15.2483 7.59278 14.7994C7.66384 14.5419 7.82851 13.9066 7.90009 13.6308C8.05336 13.0861 7.92953 12.8242 7.5953 12.4449C6.98642 11.7511 6.70288 10.9307 6.70288 9.86306C6.70288 6.69174 9.15513 3.32126 13.7002 3.32126C17.3064 3.32126 19.5466 5.29501 19.5466 8.4722C19.5466 10.4771 19.0982 12.3339 18.2836 13.7007C17.7175 14.6504 16.7222 15.7825 15.1941 15.7825C14.5334 15.7825 13.9398 15.5211 13.5653 15.0654C13.2114 14.6346 13.0948 14.0782 13.2371 13.4982C13.3979 12.8429 13.6171 12.1594 13.8292 11.4986C14.2161 10.2917 14.5819 9.15187 14.5819 8.24243C14.5819 6.68688 13.5888 5.64168 12.1109 5.64168C10.2327 5.64168 8.76125 7.47866 8.76125 9.82373C8.76125 10.9738 9.07867 11.834 9.22236 12.1644C8.98575 13.1297 7.57954 18.869 7.31281 19.9513C7.15858 20.5831 6.2295 25.573 7.76729 25.9709C9.4951 26.4179 11.0395 21.5581 11.1967 21.0089C11.3241 20.5623 11.7699 18.8735 12.0431 17.8353C12.8771 18.609 14.2201 19.132 15.5269 19.132C17.9904 19.132 20.2058 18.0645 21.7652 16.1263C23.2776 14.2464 24.1105 11.6262 24.1105 8.74868C24.1105 6.49912 23.1074 4.28143 21.3584 2.66432Z" fill="#3399F6"/>
</svg>
